<svg xmlns="http://www.w3.org/2000/svg" width="60" height="60" viewBox="0 0 60 60" fill="none">
  <circle cx="30" cy="30" r="30" fill="#25D366"/>
  <path d="M44.5 37.5C42.5 39.5 38.5 41.5 34 41.5C27.5 41.5 21.5 35.5 21.5 29C21.5 24.5 23.5 20.5 25.5 18.5C27.5 16.5 31.5 14.5 36 14.5C40.5 14.5 44.5 18.5 44.5 23C44.5 27.5 42.5 31.5 40.5 33.5C38.5 35.5 34.5 37.5 34.5 37.5" fill="#fff"/>
  <path d="M30 17C23.3726 17 18 22.3726 18 29C18 31.0938 18.6719 33.0938 19.875 34.7812L17 43L25.2188 40.125C26.9062 41.3281 28.9062 42 31 42C37.6274 42 43 36.6274 43 30C43 23.3726 37.6274 17 31 17Z" fill="#fff"/>
  <path d="M32.5 32.5C31.5 31.5 29.5 29.5 29.5 28.5C29.5 27.5 30.5 26.5 31.5 26.5C32.5 26.5 33.5 27.5 33.5 28.5C33.5 29.5 31.5 31.5 32.5 32.5Z" fill="#25D366"/>
</svg>
