<svg viewBox="67.26327683615818 264.35346 464.11661016949154 131.33483999999999" xmlns="http://www.w3.org/2000/svg" data-name="Layer 1" id="Layer_1" style="max-height: 500px" width="464.11661016949154" height="131.33483999999999"><defs><style>.cls-1{fill:#fff;}.cls-2{fill:#6ac7ed;}.cls-3{font-size:19.67px;fill:#3cf;font-family:Montserrat-Bold, Montserrat;font-weight:700;letter-spacing:0.02em;}.cls-4{letter-spacing:0.02em;}.cls-5{letter-spacing:0.01em;}.cls-6{letter-spacing:0em;}</style></defs><path d="M197.94,318.9c0-7,.05-14.06,0-21.08,0-1.71.45-1.78,1.9-1.35a14.21,14.21,0,0,1,8.31,6.07c.61.95,1,.68,1.62,0a17.73,17.73,0,0,1,7.22-5.59c2.19-.85,4.28-1.84,6.76-1.8,4.75.08,8.64,1.71,11.27,5.76.79,1.23,1.22.91,2,.07a16.58,16.58,0,0,1,16.27-5.55c6.66,1.23,10.92,5,12.32,13a38.19,38.19,0,0,1,.32,6.58V340.1c0,2.22-.33,2.55-2.55,2.56-2.94,0-5.87,0-8.8,0-2.09,0-2.45-.38-2.47-2.47,0-8.31,0-16.63-.15-24.94,0-2.42-.45-4.76-2.7-6.48-3.28-2.5-8.19-.41-9.45,3a19.23,19.23,0,0,0-1,6.85V340c0,2.33-.28,2.61-2.67,2.62-2.93,0-5.87,0-8.8,0-1.74,0-2.33-.68-2.34-2.42,0-8.37.29-16.74-.18-25.11-.14-2.59-.66-5-3.12-6.65a5.84,5.84,0,0,0-5.63-.08c-3.15,2-4.15,5-4.16,8.43,0,7.52,0,15,0,22.56,0,3-.23,3.25-3.2,3.25-2.81,0-5.62,0-8.43,0-1.64,0-2.29-.69-2.28-2.32C198,333.21,197.94,326.06,197.94,318.9Z" class="cls-1"/><path d="M116.76,304.6H97.28c-1.82,0-2.62-.75-2.66-2.6-.05-2.61-.06-5.22,0-7.83,0-1.91.74-2.56,2.62-2.56q19.56,0,39.14,0c2.37,0,2.81.82,1.62,2.86q-6.18,10.59-12.36,21.2-3.48,6-6.93,12a15.73,15.73,0,0,0-.7,1.56,3.41,3.41,0,0,0,1.92.21c6.5,0,13,0,19.48,0,1.24,0,1.6.19,1.21,1.55-2,7-7,11.37-15,11.55-10,.23-20.06.1-30.09.09-1.73,0-2.11-.85-1.1-2.54,1.37-2.27,2.84-4.47,4.25-6.71q5.42-8.64,10.81-17.28c2.11-3.36,4.24-6.71,6.36-10.07Z" class="cls-1"/><path d="M468.5,328.83c1-3.61,2.05-7.23,3.15-10.82,1.62-5.34,2.83-10.83,6.41-15.4a15.61,15.61,0,0,1,10.64-6.31c.64-.08,1.3.06,1.89-.45a1.06,1.06,0,0,1,1.36,0c.44.39.18.88,0,1.35q-3.24,9.51-6.46,19-6.25,18.35-12.54,36.67c-1.87,5.46-4.64,10.35-9.7,13.44a17.88,17.88,0,0,1-9.92,2.2c.79-2.31,1.53-4.52,2.31-6.71q2.52-7.16,5.09-14.29a4.19,4.19,0,0,0,0-3c-3.37-10-6.68-20-10-30-1.59-4.73-3.19-9.47-4.84-14.18-1-2.75-.57-3.41,2.31-3.42s5.62.05,8.43,0a2.5,2.5,0,0,1,2.86,2.14c2.82,9.91,5.74,19.79,8.63,29.67Z" class="cls-1"/><path d="M326,325.72c1.53,0,3.06,0,4.59,0a2.09,2.09,0,0,1,2.28,1.67c1.59,5.24,8.17,7.79,13,5.09a3.47,3.47,0,0,0,1.83-3.34,3.17,3.17,0,0,0-2.16-3.09,45.88,45.88,0,0,0-10-2.55,37.1,37.1,0,0,1-5-1c-10.93-3-12-13.78-7.25-20.87a11.62,11.62,0,0,1,4.84-4,27.54,27.54,0,0,1,17.47-2c3.72.81,7.53,1.89,10.22,5.08a17.2,17.2,0,0,1,3.9,7.52c.42,1.94-.14,2.51-2.22,2.52-2.81,0-5.62-.07-8.43,0a3,3,0,0,1-3.29-2.25c-1.19-3.38-7.45-5-10.06-2.53-1.57,1.48-1.55,3.25.33,4.34a19.8,19.8,0,0,0,7.35,2.46,60.28,60.28,0,0,1,6.11,1.14,18.54,18.54,0,0,1,8.87,4.65,10.52,10.52,0,0,1,3.05,6.28c.93,6.3-.74,11.68-5.77,15.81a6.45,6.45,0,0,1-1.11.65,29,29,0,0,1-19.86,2.56c-3.66-.76-7.32-2-10.15-4.9a19.16,19.16,0,0,1-5.44-11.08c-.21-1.44.47-2.21,1.94-2.22C322.67,325.71,324.32,325.72,326,325.72Z" class="cls-1"/><path d="M384.7,277.32V290c0,1.9.05,3.79,0,5.69,0,1.06.36,1.37,1.37,1.33,1.47-.07,2.94,0,4.4,0s2.11.59,2.13,1.92c0,2.69.08,5.38,0,8.07-.06,1.42-.76,2.44-2.46,2.18a2,2,0,0,0-.55,0c-1.56.12-3.56-.68-4.57.34s-.26,2.91-.26,4.42c0,8.68,0,17.36,0,26,0,2.46-.24,2.69-2.77,2.7-2.93,0-5.86,0-8.8,0-1.52,0-2.2-.58-2.2-2.18,0-9.83,0-19.67,0-29.51,0-1.42-.3-2-1.8-1.85-1.15.12-2.33-.07-3.48.05-1.8.18-2.47-.79-2.51-2.34-.06-2.56,0-5.13,0-7.7,0-1.48.67-2.26,2.26-2.15,1.22.07,2.45-.07,3.66,0,1.37.11,1.87-.26,1.92-1.78a20,20,0,0,1,3.65-11.66A15.74,15.74,0,0,1,384.7,277.32Z" class="cls-1"/><path d="M144.59,322.86c0-4.64,0-9,0-13.34,0-1.16,1.16-1.63,1.88-2.17,3.42-2.62,7-5.06,10.42-7.61s6.89-5.12,10.31-7.72a1.26,1.26,0,0,1,1.82-.06c2.74,2.07,5.53,4,8.29,6.07,4.35,3.18,8.71,6.34,13,9.58a3.54,3.54,0,0,1,1.5,3.23c-.15,3.42-.07,6.85,0,10.27,0,1.34-.24,1.8-1.42.93-3.83-2.85-7.7-5.66-11.56-8.46-1.9-1.38-3.77-2.82-5.75-4a22.67,22.67,0,0,1-3.08-2.4c-1.59-1.42-2.79-.67-4.12.35-2.38,1.81-4.81,3.55-7.19,5.36-3.28,2.51-6.78,4.66-9.94,7.38A32.53,32.53,0,0,1,144.59,322.86Z" class="cls-2"/><path d="M167.68,343c-5.56.19-10.1-2.38-14.1-6.19-4.57-4.33-6.66-9.72-7-15.93-.07-1.16.33-1.4,1.28-1.39,2.44,0,4.89.05,7.33,0,1.19,0,1.63.36,1.9,1.59,1.72,7.75,9.23,11.71,16,7.92a11.42,11.42,0,0,0,5.45-7.87c.3-1.33.82-1.68,2.06-1.65q3.76.1,7.51,0c1.22,0,1.63.36,1.5,1.59-.86,7.88-3.87,14.42-11,18.7C174.62,342.09,172.33,343,167.68,343Z" class="cls-2"/><path d="M442.1,297c0-.4.15-1-.78-.85-4.45.61-7.89,2.68-9.95,6.74-.81,1.6-1.34.8-1.92-.07-2.77-4.11-6.88-6.23-11.48-7.28a17.4,17.4,0,0,0-9.8.78c-6.13,2.15-9.82,6.48-12.08,12.25a31.83,31.83,0,0,0-1,19.27c1.46,6.17,4.58,11.33,10.41,14.47a17.76,17.76,0,0,0,13.23,1.78c4.36-1.14,8.31-3.3,10.88-7.32.41-.65.95-1.68,1.68-.16a12.1,12.1,0,0,0,8.92,6.8c2,.42,1.94.59,1.94-1.51V300.81C442.11,299.53,442.15,298.24,442.1,297ZM422.66,331c-2,1.35-6.54,1.14-8.45-.45a14.26,14.26,0,0,1-2.68-19.23c3.33-4.9,11.2-4.53,14.36.52a15.78,15.78,0,0,1,2.35,7.85C428.1,324.68,426.48,328.41,422.66,331Z" class="cls-1"/><path d="M286.52,323.87c4.58.06,9.16,0,13.75,0h13.56c2,0,2.48-.44,2.47-2.49a47.9,47.9,0,0,0-.22-4.94c-.87-8.23-4.73-14.83-12.38-18-8.64-3.54-17.36-2.81-25.09,3.06a18.76,18.76,0,0,0-5.46,6.73,29.26,29.26,0,0,0-2.24,19.61c1.7,7.81,6.19,13.62,13.67,16.21,6.91,2.39,14.11,2.5,20.89-1.27a19.64,19.64,0,0,0,9.61-12.47c.49-1.77,0-2.36-1.83-2.38-2.68,0-5.39.16-8.06-.05-2.33-.19-3.58.7-4.49,2.77-1.25,2.84-6.45,4.78-9.29,3.62-3.89-1.58-5.84-4.7-6.43-8.79C284.79,324.19,285.23,323.85,286.52,323.87Zm-1.24-9.51c1.34-5.36,5.19-8.66,10.92-6.79,3.09,1,4.89,3.84,5.32,7,.13,1-.44,1.1-1.21,1.1-2.32,0-4.64,0-7,0s-4.65,0-7,0C285.38,315.7,285.05,315.31,285.28,314.36Z" class="cls-1"/><text transform="translate(198.9 364.05)" class="cls-3">t<tspan y="0" x="8.95" class="cls-4">h</tspan><tspan y="0" x="23.02">e unique st</tspan><tspan y="0" x="142.43" class="cls-5">a</tspan><tspan y="0" x="154.76" class="cls-6">y</tspan><tspan y="0" x="166.63">cations</tspan></text></svg>