<?xml version="1.0" encoding="iso-8859-1"?>
<!-- Uploaded to: SVG Repo, www.svgrepo.com, Generator: SVG Repo Mixer Tools -->
<!DOCTYPE svg PUBLIC "-//W3C//DTD SVG 1.1//EN" "http://www.w3.org/Graphics/SVG/1.1/DTD/svg11.dtd">
<svg fill="#000000" version="1.1" id="Capa_1" xmlns="http://www.w3.org/2000/svg" xmlns:xlink="http://www.w3.org/1999/xlink" 
	 width="800px" height="800px" viewBox="0 0 90.54 90.539"
	 xml:space="preserve">
<g>
	<g>
		<path d="M24.631,47.998c-0.001-0.018-0.003-0.039-0.007-0.064c-0.02-0.148-0.115-0.23-0.457-0.455
			c-0.945-0.623-1.839-1.475-1.53-4.332c-0.112-0.044-0.24-0.081-0.355-0.081c-0.115,0-0.163,0.036-0.197,0.076
			c-0.069,0.077-0.281,0.416-0.146,1.554c0.325,2.75,1.531,2.955,1.543,2.955c0.066,0.004,0.132,0.023,0.192,0.055
			c0.221,0.113,0.674,0.293,0.944,0.293C24.622,47.998,24.626,47.998,24.631,47.998z"/>
		<path d="M64.209,16.458C61.432,8.906,54.223,3.857,46.146,3.857c-7.253,0-13.886,4.101-17.155,10.522
			c-0.423,0.413-0.792,0.88-1.105,1.4L3.978,55.721C1.41,59.068,0,63.219,0,67.436c0,10.611,8.634,19.246,19.246,19.246h52.047
			c10.613,0,19.246-8.635,19.246-19.246c0-3.641-1.053-7.273-2.965-10.25L64.209,16.458z M23.25,41.503
			c0.036-0.128,0.124-0.236,0.242-0.299l31.526-16.903c0.148-0.081,0.33-0.079,0.479,0.006l1.668,0.945
			c0.713,0.404,0.852,0.886,0.842,1.218c-0.029,0.959-1.33,1.644-1.592,1.771C56.219,28.346,35.132,39.55,30.293,42.08
			c-1.515,0.791-2.876,1.191-4.047,1.191c-2.143,0-2.92-1.332-2.951-1.387C23.228,41.769,23.213,41.632,23.25,41.503z
			 M32.576,48.361c-0.073,0.039-0.152,0.059-0.232,0.059c-0.112,0-0.225-0.039-0.314-0.113c-0.154-0.127-0.218-0.334-0.159-0.525
			c0.626-2.076-1.735-4.369-1.76-4.393c-0.114-0.108-0.17-0.268-0.148-0.425c0.021-0.157,0.117-0.294,0.256-0.37l25.91-13.956
			c0.24-0.128,0.537-0.041,0.668,0.197l0.893,1.613c0.117,0.216,0.061,0.486-0.139,0.635c-3.092,2.32-3.027,5.284-3.027,5.314
			c0.008,0.189-0.094,0.366-0.262,0.455L32.576,48.361z M51.336,44.356c-0.152,1.222-0.814,2.272-1.961,3.13
			c-0.834,0.623-1.705,0.939-2.588,0.939c-2.844,0-4.917-3.304-4.984-4.131c-0.017-0.196,0.084-0.383,0.257-0.476l7.284-3.949
			c0.211-0.114,0.473-0.062,0.621,0.125C50.034,40.079,51.625,42.084,51.336,44.356z M31.338,46.144
			c0,1.259-0.472,3.388-2.238,3.388c-0.864,0-1.875-0.533-3.094-1.629c-0.851-0.77-2.109-2.672-2.109-4.316
			c0-0.18,0.099-0.346,0.256-0.434c0.159-0.088,0.352-0.081,0.504,0.015c0.003,0.002,0.693,0.414,1.924,0.414
			c0.229,0,0.464-0.014,0.701-0.042c0.25-0.03,0.478,0.129,0.539,0.372c0.292,1.163,1.028,2.774,1.654,2.774
			c0.263,0,0.604-0.291,0.957-0.816c0.121-0.183,0.348-0.264,0.556-0.197C31.195,45.734,31.338,45.927,31.338,46.144z
			 M20.953,44.812c-0.133-1.122-0.006-1.884,0.39-2.327c0.237-0.269,0.562-0.409,0.938-0.409c0.576,0,1.103,0.335,1.16,0.374
			c0.159,0.104,0.244,0.292,0.219,0.479c-0.374,2.785,0.416,3.304,1.051,3.722c0.381,0.25,0.812,0.535,0.896,1.15
			c0.049,0.361-0.022,0.656-0.211,0.873c-0.126,0.145-0.362,0.314-0.777,0.314c-0.513,0-1.115-0.266-1.326-0.367
			C22.845,48.527,21.329,47.979,20.953,44.812z M30.482,76.498c1.027,0,2.072-0.211,2.75-0.541l0.349,1.336
			c-0.619,0.311-1.858,0.619-3.446,0.619c-3.681,0-6.449-2.324-6.449-6.604c0-4.086,2.769-6.855,6.816-6.855
			c1.627,0,2.653,0.35,3.099,0.58l-0.407,1.375c-0.639-0.309-1.549-0.541-2.633-0.541c-3.061,0-5.094,1.955-5.094,5.383
			C25.467,74.447,27.307,76.498,30.482,76.498z M41.309,76.498c1.026,0,2.072-0.211,2.75-0.541l0.349,1.336
			c-0.619,0.311-1.859,0.619-3.446,0.619c-3.681,0-6.449-2.324-6.449-6.604c0-4.086,2.769-6.855,6.816-6.855
			c1.627,0,2.653,0.35,3.099,0.58l-0.407,1.375c-0.639-0.309-1.549-0.541-2.634-0.541c-3.06,0-5.093,1.955-5.093,5.383
			C36.293,74.447,38.133,76.498,41.309,76.498z M45.744,48.541h2.446c0.203,0,0.389,0.125,0.461,0.316
			c0.039,0.096,1.004,2.406,4.377,2.406h7.621v-1.729c0-0.27,0.217-0.49,0.484-0.496l2.336-0.055
			c0.119-0.002,0.262,0.047,0.355,0.141c0.096,0.094,0.15,0.221,0.15,0.354v6.061c0,0.275-0.223,0.496-0.496,0.496h-2.404
			c-0.133,0-0.26-0.053-0.352-0.146c-0.094-0.096-0.146-0.223-0.145-0.355l0.012-1.18l-7.918,0.014
			c-3.426,0-7.426-1.396-7.426-5.332C45.248,48.764,45.47,48.541,45.744,48.541z M55.233,66.1h-3.988v11.621H49.54V66.1h-3.97
			v-1.434h9.663V66.1z M62.186,77.721h-1.859l-4.26-13.055h1.82l2.033,6.43c0.562,1.762,1.045,3.352,1.395,4.881h0.039
			c0.367-1.51,0.91-3.156,1.49-4.861l2.209-6.449h1.801L62.186,77.721z M67.952,57.111c0,0.273-0.221,0.494-0.496,0.494h-2.752
			c-0.271,0-0.494-0.221-0.494-0.494V47.93c0-0.273,0.223-0.494,0.494-0.494h2.752c0.275,0,0.496,0.221,0.496,0.494V57.111z"/>
		<path d="M26.972,44.56c-0.794,0.046-1.494-0.062-1.975-0.198c0.288,1.101,1.087,2.277,1.674,2.805
			c1.262,1.139,2.018,1.375,2.43,1.375c0.546,0,0.854-0.486,1.026-1.02c-0.213,0.104-0.43,0.154-0.652,0.154
			C28.073,47.676,27.272,45.56,26.972,44.56z"/>
		<path d="M56.616,30.557l-0.449-0.813l-24.916,13.42c0.636,0.743,1.707,2.238,1.715,3.868l20.576-10.92
			C53.602,35.227,54,32.696,56.616,30.557z"/>
		<path d="M26.247,42.282c1.009,0,2.216-0.364,3.588-1.08c4.835-2.528,25.917-13.731,26.13-13.845
			c0.498-0.245,1.045-0.686,1.053-0.918c0-0.061-0.088-0.183-0.34-0.325l-1.434-0.812L24.524,41.774
			C24.842,42.016,25.388,42.282,26.247,42.282L26.247,42.282z"/>
		<path d="M52.674,53.377h0.117l8.303-0.014c0,0,0,0,0.002,0c0.131,0,0.258,0.053,0.352,0.146c0.092,0.096,0.146,0.223,0.143,0.354
			l-0.014,1.18h1.41v-5.057l-1.344,0.033v1.74c0,0.273-0.223,0.494-0.496,0.494H53.03c-3.324,0-4.721-1.939-5.148-2.723h-1.614
			C46.678,53.186,51.645,53.377,52.674,53.377z"/>
		<rect x="65.2" y="48.426" width="1.762" height="8.189"/>
		<circle cx="46.967" cy="44.587" r="0.728"/>
		<path d="M42.905,44.487c0.416,0.814,1.905,2.946,3.883,2.946c0.664,0,1.336-0.25,1.996-0.742c0.922-0.689,1.451-1.516,1.57-2.46
			c0.174-1.375-0.537-2.686-0.924-3.281L42.905,44.487z M46.967,46.307c-0.948,0-1.718-0.771-1.718-1.72s0.771-1.719,1.718-1.719
			c0.947,0,1.719,0.771,1.719,1.719S47.915,46.307,46.967,46.307z"/>
	</g>
</g>
</svg>