<?xml version="1.0" ?><!-- Uploaded to: SVG Repo, www.svgrepo.com, Generator: SVG Repo Mixer Tools -->
<svg fill="#000000" width="800px" height="800px" viewBox="0 0 32 32" xmlns="http://www.w3.org/2000/svg" id="Layer_1" data-name="Layer 1"><path d="M15.35,2.45s0,0-.01-.01c-.05-.08-.11-.15-.18-.21,0,0,0,0,0,0-.04-.03-.09-.05-.14-.07-.04-.02-.07-.05-.11-.06,0,0,0,0,0,0,0,0-.01,0-.02,0-2.37-.67-4.63,.22-5.15,2.04-.51,1.81,.92,3.74,3.26,4.44,0,0,.01,0,.02,0,.01,0,.03,.01,.04,.01,.07,.02,.13,.03,.2,.03,0,0,0,0,0,0,0,0,0,0,0,0,0,0,0,0,0,0,0,0,0,0,0,0,.04,0,.09,0,.13-.01,.02,0,.03-.01,.04-.02,.06-.02,.12-.04,.18-.07,.02-.01,.05-.02,.07-.04,.14-.1,.25-.23,.3-.41,0,0,0-.01,0-.02,.01-.05,0-.1,.01-.15,0-.05,.01-.1,0-.15,0,0,0-.01,0-.02l-.17-.98,.65-.43c.27-.18,.4-.52,.31-.83l-.33-1.15,.82-1.05s0,0,0-.01h0s.02-.04,.03-.05c.04-.06,.08-.13,.1-.2,0,0,0,0,0,0,.02-.09,.03-.18,.02-.27,0-.11-.04-.21-.09-.3Zm-4.18,2.09c.21-.72,1.08-1.16,2.14-1.17l-.27,.34c-.15,.19-.2,.44-.13,.67l.28,.99-.61,.4c-.25,.16-.38,.46-.33,.76v.05c-.81-.56-1.28-1.35-1.08-2.04Z"/><path d="M16.64,8.75s-.04,.07-.06,.11c0,0,0,0,0,0-.02,.09-.03,.18-.02,.26,0,.07,.03,.13,.05,.19,.02,.04,.03,.09,.05,.13,.05,.08,.1,.15,.17,.2,0,0,0,0,0,0,.07,.06,.16,.1,.24,.12,0,0,0,0,.01,0,.54,.15,1.07,.23,1.58,.23,1.74,0,3.19-.85,3.59-2.26,.52-1.82-.94-3.78-3.32-4.46,0,0-.01,0-.02,0-.05-.01-.1,0-.15-.01-.05,0-.1-.01-.15,0,0,0-.01,0-.02,0-.03,0-.06,.03-.09,.04-.06,.02-.11,.03-.16,.06-.04,.02-.07,.05-.1,.08-.04,.03-.08,.07-.11,.11-.03,.04-.05,.09-.07,.14-.02,.03-.04,.06-.05,.1,0,0,0,.01,0,.02-.01,.05,0,.1-.01,.15,0,.05-.01,.1,0,.15,0,0,0,.01,0,.02l.17,.98-.65,.43c-.27,.18-.4,.52-.31,.83l.33,1.15-.83,1.07s-.05,.1-.07,.15Zm4.19-1.41c-.21,.72-1.08,1.16-2.14,1.17l.27-.35c.15-.19,.2-.44,.13-.67l-.28-.99,.61-.4c.25-.16,.38-.46,.33-.76v-.05c.81,.56,1.28,1.35,1.08,2.04Z"/><path d="M14.71,8.51c-1.15,0-2.05,1.13-2.05,2.57s.9,2.57,2.05,2.57,2.05-1.13,2.05-2.57-.9-2.57-2.05-2.57Zm0,3.65c-.22,0-.55-.43-.55-1.07s.33-1.07,.55-1.07,.55,.43,.55,1.07-.33,1.07-.55,1.07Z"/><path d="M27.76,15.06H4.24c-.41,0-.75,.34-.75,.75,0,4.96,2.91,9.25,7.11,11.27v2.84c0,.41,.34,.75,.75,.75h9.31c.41,0,.75-.34,.75-.75v-2.85c4.19-2.02,7.1-6.3,7.1-11.26,0-.41-.34-.75-.75-.75Zm-7.85,14.11h-7.81v-1.48c1.23,.4,2.54,.63,3.9,.63s2.68-.23,3.91-.63v1.48Zm-3.91-2.35c-5.82,0-10.6-4.54-10.99-10.26H26.99c-.39,5.72-5.17,10.26-10.99,10.26Z"/><path d="M8,18.95h15.98c.41,0,.75-.34,.75-.75s-.34-.75-.75-.75H8c-.41,0-.75,.34-.75,.75s.34,.75,.75,.75Z"/></svg>