<?xml version="1.0" ?><!-- Uploaded to: SVG Repo, www.svgrepo.com, Generator: SVG Repo Mixer Tools -->
<svg fill="#000000" width="800px" height="800px" viewBox="0 0 32 32" xmlns="http://www.w3.org/2000/svg" id="Layer_1" data-name="Layer 1"><path d="M22.48,6.82h-2.13v-1.22c0-2.4-1.95-4.35-4.35-4.35s-4.35,1.95-4.35,4.35v1.22h-2.13c-.41,0-.75,.34-.75,.75V30c0,.41,.34,.75,.75,.75h12.96c.41,0,.75-.34,.75-.75V7.57c0-.41-.34-.75-.75-.75Zm-9.33-1.22c0-1.57,1.28-2.85,2.85-2.85s2.85,1.28,2.85,2.85v1.22h-5.69v-1.22Zm8.58,23.65H10.27V8.32h11.46V29.25Z"/><path d="M13.81,10.02h-2.15c-.41,0-.75,.34-.75,.75s.34,.75,.75,.75h2.15c.41,0,.75-.34,.75-.75s-.34-.75-.75-.75Z"/><path d="M17.44,10.77c0,.41,.34,.75,.75,.75h2.15c.41,0,.75-.34,.75-.75s-.34-.75-.75-.75h-2.15c-.41,0-.75,.34-.75,.75Z"/><path d="M13.81,13.23h-2.15c-.41,0-.75,.34-.75,.75s.34,.75,.75,.75h2.15c.41,0,.75-.34,.75-.75s-.34-.75-.75-.75Z"/><path d="M20.34,13.23h-2.15c-.41,0-.75,.34-.75,.75s.34,.75,.75,.75h2.15c.41,0,.75-.34,.75-.75s-.34-.75-.75-.75Z"/><path d="M13.81,16.43h-2.15c-.41,0-.75,.34-.75,.75s.34,.75,.75,.75h2.15c.41,0,.75-.34,.75-.75s-.34-.75-.75-.75Z"/><path d="M20.34,16.43h-2.15c-.41,0-.75,.34-.75,.75s.34,.75,.75,.75h2.15c.41,0,.75-.34,.75-.75s-.34-.75-.75-.75Z"/><path d="M13.81,19.64h-2.15c-.41,0-.75,.34-.75,.75s.34,.75,.75,.75h2.15c.41,0,.75-.34,.75-.75s-.34-.75-.75-.75Z"/><path d="M20.34,19.64h-2.15c-.41,0-.75,.34-.75,.75s.34,.75,.75,.75h2.15c.41,0,.75-.34,.75-.75s-.34-.75-.75-.75Z"/><path d="M13.81,22.84h-2.15c-.41,0-.75,.34-.75,.75s.34,.75,.75,.75h2.15c.41,0,.75-.34,.75-.75s-.34-.75-.75-.75Z"/><path d="M20.34,22.84h-2.15c-.41,0-.75,.34-.75,.75s.34,.75,.75,.75h2.15c.41,0,.75-.34,.75-.75s-.34-.75-.75-.75Z"/><path d="M13.81,26.05h-2.15c-.41,0-.75,.34-.75,.75s.34,.75,.75,.75h2.15c.41,0,.75-.34,.75-.75s-.34-.75-.75-.75Z"/><path d="M20.34,26.05h-2.15c-.41,0-.75,.34-.75,.75s.34,.75,.75,.75h2.15c.41,0,.75-.34,.75-.75s-.34-.75-.75-.75Z"/></svg>