<?xml version="1.0" ?><!-- Uploaded to: SVG Repo, www.svgrepo.com, Generator: SVG Repo Mixer Tools -->
<svg fill="#000000" width="800px" height="800px" viewBox="0 0 32 32" xmlns="http://www.w3.org/2000/svg" id="Layer_1" data-name="Layer 1"><path d="M20.86,9.96v-2.09c0-2.62-2.13-4.74-4.74-4.74s-4.75,2.13-4.75,4.74v2.05l-2.05,20c-.02,.21,.05,.42,.19,.58,.14,.16,.34,.25,.56,.25h5.93s.07-.02,.1-.02c.03,0,.07,.02,.1,.02h5.93c.21,0,.41-.09,.56-.25,.14-.16,.21-.37,.19-.58l-2.04-19.9s.01-.04,.01-.07Zm-4.66-.75h-3.33v-.59h6.49v.59h-3.16Zm-.09-4.58c1.53,0,2.81,1.07,3.15,2.49h-6.3c.34-1.43,1.62-2.49,3.15-2.49Zm.09,24.62s-.07,.02-.1,.02c-.03,0-.07-.02-.1-.02h-5.1l.26-2.5h6.87c.41,0,.75-.34,.75-.75s-.34-.75-.75-.75h-6.72l1.49-14.54h6.61l1.9,18.54h-5.1Z"/></svg>