<?xml version="1.0" encoding="iso-8859-1"?>
<!-- Uploaded to: SVG Repo, www.svgrepo.com, Generator: SVG Repo Mixer Tools -->
<svg fill="#000000" height="800px" width="800px" version="1.1" id="Layer_1" xmlns="http://www.w3.org/2000/svg" xmlns:xlink="http://www.w3.org/1999/xlink" 
	 viewBox="0 0 512 512" xml:space="preserve">
<g>
	<g>
		<path d="M387.98,93.958C368.794,38.56,315.935,0,256,0S143.206,38.56,124.02,93.958C54.346,101.745,0,161.008,0,232.727
			c0,69.067,50.407,126.585,116.364,137.697v118.303c0,12.853,10.42,23.273,23.273,23.273h232.727
			c12.853,0,23.273-10.42,23.273-23.273V370.424C461.593,359.312,512,301.794,512,232.727
			C512,161.008,457.654,101.745,387.98,93.958z M349.091,465.455H162.909v-46.545h186.182V465.455z M372.364,325.818
			c-12.853,0-23.273,10.42-23.273,23.273v23.273H162.909v-23.273c0-12.853-10.42-23.273-23.273-23.273
			c-51.33,0-93.091-41.761-93.091-93.091s41.761-93.091,93.083-93.091c0.211,0.002,0.419,0.011,0.627,0.019
			c0.416,0.014,0.83,0.028,1.246,0.036c11.234,0.258,21.034-7.629,23.265-18.649c8.741-43.166,47.11-74.496,91.234-74.496
			s82.493,31.33,91.232,74.496c2.233,11.02,11.985,18.882,23.265,18.649c0.416-0.008,0.832-0.022,1.246-0.036
			c0.208-0.006,0.417-0.017,0.619-0.019c51.33,0,93.091,41.761,93.091,93.091S423.694,325.818,372.364,325.818z"/>
	</g>
</g>
</svg>